<svg width="800" height="400" xmlns="http://www.w3.org/2000/svg">
  <defs>
    <linearGradient id="skyGradient" x1="0%" y1="0%" x2="0%" y2="100%">
      <stop offset="0%" style="stop-color:#87CEEB;stop-opacity:1" />
      <stop offset="100%" style="stop-color:#E0F7FA;stop-opacity:1" />
    </linearGradient>
    <linearGradient id="grassGradient" x1="0%" y1="0%" x2="0%" y2="100%">
      <stop offset="0%" style="stop-color:#4CAF50;stop-opacity:1" />
      <stop offset="100%" style="stop-color:#2E7D32;stop-opacity:1" />
    </linearGradient>
  </defs>
  
  <!-- Sky -->
  <rect width="800" height="400" fill="url(#skyGradient)" />
  
  <!-- Sun -->
  <circle cx="700" cy="80" r="40" fill="#FFeb3b" />
  
  <!-- Hills/Grass -->
  <path d="M0 250 Q 200 200 400 250 T 800 250 V 400 H 0 Z" fill="url(#grassGradient)" />
  
  <!-- Flowers -->
  <g transform="translate(100, 300)">
    <circle cx="0" cy="0" r="10" fill="#E91E63" />
    <circle cx="10" cy="-10" r="10" fill="#E91E63" />
    <circle cx="-10" cy="-10" r="10" fill="#E91E63" />
    <circle cx="10" cy="10" r="10" fill="#E91E63" />
    <circle cx="-10" cy="10" r="10" fill="#E91E63" />
    <circle cx="0" cy="0" r="5" fill="#FFeb3b" />
    <path d="M0 20 L0 50" stroke="#2E7D32" stroke-width="3" />
  </g>
  
  <g transform="translate(200, 320)">
    <circle cx="0" cy="0" r="10" fill="#9C27B0" />
    <circle cx="10" cy="-10" r="10" fill="#9C27B0" />
    <circle cx="-10" cy="-10" r="10" fill="#9C27B0" />
    <circle cx="10" cy="10" r="10" fill="#9C27B0" />
    <circle cx="-10" cy="10" r="10" fill="#9C27B0" />
    <circle cx="0" cy="0" r="5" fill="#FFeb3b" />
    <path d="M0 20 L0 50" stroke="#2E7D32" stroke-width="3" />
  </g>

  <g transform="translate(300, 280)">
    <circle cx="0" cy="0" r="10" fill="#FF9800" />
    <circle cx="10" cy="-10" r="10" fill="#FF9800" />
    <circle cx="-10" cy="-10" r="10" fill="#FF9800" />
    <circle cx="10" cy="10" r="10" fill="#FF9800" />
    <circle cx="-10" cy="10" r="10" fill="#FF9800" />
    <circle cx="0" cy="0" r="5" fill="#FFeb3b" />
    <path d="M0 20 L0 50" stroke="#2E7D32" stroke-width="3" />
  </g>
  
  <g transform="translate(600, 310)">
    <circle cx="0" cy="0" r="10" fill="#F44336" />
    <circle cx="10" cy="-10" r="10" fill="#F44336" />
    <circle cx="-10" cy="-10" r="10" fill="#F44336" />
    <circle cx="10" cy="10" r="10" fill="#F44336" />
    <circle cx="-10" cy="10" r="10" fill="#F44336" />
    <circle cx="0" cy="0" r="5" fill="#FFeb3b" />
    <path d="M0 20 L0 50" stroke="#2E7D32" stroke-width="3" />
  </g>

  <!-- Text -->
  <text x="400" y="150" font-family="Arial, sans-serif" font-size="40" font-weight="bold" fill="#333" text-anchor="middle">Festa da Primavera</text>
</svg>
